<?xml version="1.0" encoding="UTF-8" standalone="no"?>
<svg
   version="1.1"
   id="logo"
   x="0px"
   y="0px"
   viewBox="0 0 40 40"
   style="enable-background:new 0 0 40 40;"
   xml:space="preserve"
   sodipodi:docname="pluginIcon.svg"
   inkscape:version="1.1 (c68e22c387, 2021-05-23)"
   xmlns:inkscape="http://www.inkscape.org/namespaces/inkscape"
   xmlns:sodipodi="http://sodipodi.sourceforge.net/DTD/sodipodi-0.dtd"
   xmlns="http://www.w3.org/2000/svg"
   xmlns:svg="http://www.w3.org/2000/svg"><defs
   id="defs9" /><sodipodi:namedview
   id="namedview7"
   pagecolor="#ffffff"
   bordercolor="#666666"
   borderopacity="1.0"
   inkscape:pageshadow="2"
   inkscape:pageopacity="0.0"
   inkscape:pagecheckerboard="0"
   showgrid="false"
   inkscape:zoom="90.509668"
   inkscape:cx="25.417174"
   inkscape:cy="36.244747"
   inkscape:window-width="1920"
   inkscape:window-height="1013"
   inkscape:window-x="-9"
   inkscape:window-y="-9"
   inkscape:window-maximized="1"
   inkscape:current-layer="logo" />
<style
   type="text/css"
   id="style2">
	.st0{fill:#DF0098;}
</style>
<path
   class="st0"
   d="M35.5,24.9c-0.3-0.2-0.6-0.3-0.9-0.3v-9.1c0.3-0.1,0.6-0.2,0.9-0.3c1.7-0.9,2.2-3,1.3-4.6  c-1-1.6-3.1-2.2-4.7-1.2c-0.3,0.2-0.5,0.4-0.8,0.6l-8-4.5c0.1-0.3,0.2-0.6,0.2-1C23.5,2.5,21.9,1,20,1c-1.9,0-3.5,1.5-3.5,3.4  c0,0.3,0.1,0.7,0.2,1l-8,4.5C8.5,9.6,8.2,9.4,7.9,9.3c-1.7-0.9-3.8-0.4-4.7,1.2c-1,1.6-0.4,3.7,1.3,4.6c0.3,0.2,0.6,0.3,0.9,0.3v9.1  c-0.3,0.1-0.6,0.2-0.9,0.3c-1.7,0.9-2.2,3-1.3,4.6c1,1.6,3.1,2.2,4.7,1.2c0.3-0.2,0.5-0.4,0.8-0.6l8,4.5c-0.1,0.3-0.2,0.6-0.2,0.9  c0,1.9,1.5,3.4,3.5,3.4c1.9,0,3.5-1.5,3.5-3.4c0-0.4-0.1-0.7-0.2-1.1l8-4.5c0.2,0.3,0.5,0.5,0.8,0.7c1.7,0.9,3.8,0.4,4.7-1.2  C37.8,27.9,37.2,25.8,35.5,24.9z M9.5,27c-0.1-0.3-0.2-0.6-0.3-0.9c-0.2-0.3-0.4-0.5-0.6-0.7L19,7.6c0.3,0.1,0.6,0.1,1,0.1  c0.3,0,0.7-0.1,1-0.1l10.5,17.7c-0.2,0.2-0.4,0.5-0.6,0.7c-0.2,0.3-0.3,0.6-0.3,0.9H9.5z M30.5,11.3c-0.2,0.9-0.2,1.8,0.3,2.6  c0.5,0.8,1.3,1.4,2.2,1.6v9c0,0-0.1,0-0.1,0L22.4,6.8c0,0,0.1-0.1,0.1-0.1L30.5,11.3z M17.5,6.7C17.5,6.8,17.6,6.8,17.5,6.7  L7.2,24.6c0,0-0.1,0-0.1,0v-9c0.9-0.2,1.7-0.8,2.2-1.6c0.5-0.8,0.6-1.8,0.3-2.6L17.5,6.7z M22.5,33.3c-0.6-0.7-1.5-1.1-2.5-1.1  c-1,0-1.9,0.4-2.5,1l-8-4.5c0,0,0-0.1,0-0.1h20.9c0,0.1,0,0.1,0.1,0.2L22.5,33.3z"
   id="path4" />
<path
   style="fill:#6db33f;fill-opacity:1;stroke-width:0.0625"
   d="m 19.89624,0.9798584 c -1.852251,-0.0262859 -3.578706,1.7012545 -3.405884,3.5780029 -0.02816,0.2831449 0.12687,0.5720539 0.121338,0.8352051 C 13.99994,6.8804793 11.371496,8.3650831 8.7399903,9.803345 7.4680117,8.6998125 5.395957,8.4446744 4.0198974,9.5103763 2.7406009,10.477329 2.2389731,12.433565 3.1271973,13.822144 c 0.4725007,0.75408 1.2199435,1.394484 2.0964355,1.600342 0.2975529,0.06258 0.05556,0.658986 0.1339111,0.93872 0,2.700683 0,5.401367 0,8.102051 -1.066442,0.252956 -2.0454036,0.981483 -2.4111328,2.040649 -0.4580171,1.218482 -0.1911276,2.706459 0.7923584,3.595337 1.1377938,1.18861 3.1866766,1.369583 4.4736406,0.319631 0.2754691,-0.243917 0.5478662,-0.496881 0.8640243,-0.154062 2.5210706,1.417337 5.0421896,2.834587 7.5633366,4.251789 -0.466317,1.327805 0.111017,2.87775 1.262939,3.657715 1.208769,0.895982 2.970393,0.88879 4.174316,-0.0116 0.972826,-0.675278 1.578315,-1.868464 1.425538,-3.060303 -0.01311,-0.26561 -0.07219,-0.52547 -0.147461,-0.779663 2.634103,-1.48806 5.272196,-2.968141 7.912109,-4.445679 1.201737,1.31113 3.433892,1.487211 4.796509,0.327515 0.967667,-0.769459 1.545957,-2.109534 1.125977,-3.321411 -0.349452,-1.072821 -1.253124,-1.963262 -2.329347,-2.294922 -0.387958,0.05714 -0.156187,-0.449828 -0.217895,-0.699463 0,-2.784017 0,-5.568034 0,-8.352051 1.066442,-0.252956 2.045404,-0.981483 2.411133,-2.040649 0.458017,-1.218482 0.191127,-2.706459 -0.792358,-3.5953371 C 35.123437,8.7121475 33.074554,8.5311744 31.78759,9.5811256 31.512121,9.8250431 31.239724,10.078007 30.923566,9.7351881 28.402544,8.3179075 25.881512,6.9006475 23.360474,5.4833984 23.872027,3.998078 23.176183,2.2484251 21.822998,1.4708252 21.251116,1.0962653 20.573528,0.95383279 19.89624,0.9798584 Z m 2.591431,5.8361817 c 2.468173,1.2796149 4.839918,2.7353312 7.261734,4.1018599 0.192763,0.199248 0.715291,0.221729 0.655491,0.55902 -0.117656,0.880983 -0.08925,1.855108 0.475353,2.595712 0.4817,0.710171 1.220585,1.224172 2.039795,1.468872 -0.01247,2.930534 0.03074,5.861949 -0.03955,8.79187 -1.746882,-2.837397 -3.407255,-5.728632 -5.1207,-8.58681 -1.764302,-2.98 -3.544475,-5.9652052 -5.29971,-8.9413882 z M 17.190064,7.0964356 C 13.888258,12.899634 10.583983,18.702024 7.1820068,24.447266 c -0.067128,-2.936277 -0.00192,-5.874341 -0.00854,-8.81128 1.5217737,-0.411991 2.7638549,-1.920473 2.6308593,-3.527587 -0.00235,-0.239035 -0.182315,-0.545075 -0.060116,-0.734976 2.5166929,-1.488328 5.0151379,-3.015098 7.5510829,-4.4663185 -0.03507,0.06311 -0.07015,0.1262207 -0.105224,0.1893311 z m 9.000366,9.3369134 c 1.742307,2.944527 3.496434,5.882252 5.216064,8.8396 -0.303978,0.507305 -0.834158,0.912548 -0.861816,1.553345 -6.89013,0.01616 -13.780846,-0.03774 -20.6705842,0.04248 C 9.7054381,26.852292 9.4542844,26.975889 9.44751,26.714722 9.3265925,26.201754 9.0371388,25.755748 8.6523438,25.399658 12.098379,19.501384 15.544342,13.603069 18.990234,7.7047119 c 0.671387,-0.00342 1.342774,-0.00684 2.01416,-0.010254 1.728679,2.9129641 3.457357,5.8259281 5.186036,8.7388911 z m -2.991456,12.240845 c 2.364205,0.01942 4.755395,-0.03489 7.104005,0.05762 0.26949,0.0485 -0.202325,0.202562 -0.273151,0.271831 -2.505024,1.423126 -5.01509,2.837635 -7.534589,4.235006 -1.011195,-1.123869 -2.777862,-1.390217 -4.108642,-0.700562 -0.352411,0.127437 -0.631291,0.45278 -0.961426,0.571655 -2.585871,-1.42164 -5.150086,-2.893953 -7.697876,-4.386718 4.489421,-0.08483 8.981524,-0.03399 13.471679,-0.04883 z"
   id="path2097" /></svg>
